<?xml version="1.0" encoding="utf-8" standalone="no"?>
<!DOCTYPE svg PUBLIC "-//W3C//DTD SVG 1.1//EN"
  "http://www.w3.org/Graphics/SVG/1.1/DTD/svg11.dtd">
<!-- Created with matplotlib (http://matplotlib.org/) -->
<svg height="421.792031pt" version="1.1" viewBox="0 0 425.106375 421.792031" width="425.106375pt" xmlns="http://www.w3.org/2000/svg" xmlns:xlink="http://www.w3.org/1999/xlink">
 <defs>
  <style type="text/css">
*{stroke-linecap:butt;stroke-linejoin:round;}
  </style>
 </defs>
 <g id="figure_1">
  <g id="patch_1">
   <path d="M 0 421.792031 
L 425.106375 421.792031 
L 425.106375 0 
L 0 0 
z
" style="fill:#ffffff;"/>
  </g>
  <g id="axes_1">
   <g id="patch_2">
    <path d="M 48.194375 117.580979 
L 194.338375 117.580979 
L 194.338375 21.406313 
L 48.194375 21.406313 
z
" style="fill:#ffffff;"/>
   </g>
   <g id="matplotlib.axis_1"/>
   <g id="matplotlib.axis_2">
    <g id="ytick_1">
     <g id="text_1">
      <!-- −10 -->
      <defs>
       <path d="M 10.59375 35.5 
L 73.1875 35.5 
L 73.1875 27.203125 
L 10.59375 27.203125 
z
" id="DejaVuSans-2212"/>
       <path d="M 12.40625 8.296875 
L 28.515625 8.296875 
L 28.515625 63.921875 
L 10.984375 60.40625 
L 10.984375 69.390625 
L 28.421875 72.90625 
L 38.28125 72.90625 
L 38.28125 8.296875 
L 54.390625 8.296875 
L 54.390625 0 
L 12.40625 0 
z
" id="DejaVuSans-31"/>
       <path d="M 31.78125 66.40625 
Q 24.171875 66.40625 20.328125 58.90625 
Q 16.5 51.421875 16.5 36.375 
Q 16.5 21.390625 20.328125 13.890625 
Q 24.171875 6.390625 31.78125 6.390625 
Q 39.453125 6.390625 43.28125 13.890625 
Q 47.125 21.390625 47.125 36.375 
Q 47.125 51.421875 43.28125 58.90625 
Q 39.453125 66.40625 31.78125 66.40625 
z
M 31.78125 74.21875 
Q 44.046875 74.21875 50.515625 64.515625 
Q 56.984375 54.828125 56.984375 36.375 
Q 56.984375 17.96875 50.515625 8.265625 
Q 44.046875 -1.421875 31.78125 -1.421875 
Q 19.53125 -1.421875 13.0625 8.265625 
Q 6.59375 17.96875 6.59375 36.375 
Q 6.59375 54.828125 13.0625 64.515625 
Q 19.53125 74.21875 31.78125 74.21875 
z
" id="DejaVuSans-30"/>
      </defs>
      <g style="fill:#262626;" transform="translate(17.800734 120.826709)scale(0.099 -0.099)">
       <use xlink:href="#DejaVuSans-2212"/>
       <use x="83.789062" xlink:href="#DejaVuSans-31"/>
       <use x="147.412109" xlink:href="#DejaVuSans-30"/>
      </g>
     </g>
    </g>
    <g id="ytick_2">
     <g id="text_2">
      <!-- −5 -->
      <defs>
       <path d="M 10.796875 72.90625 
L 49.515625 72.90625 
L 49.515625 64.59375 
L 19.828125 64.59375 
L 19.828125 46.734375 
Q 21.96875 47.46875 24.109375 47.828125 
Q 26.265625 48.1875 28.421875 48.1875 
Q 40.625 48.1875 47.75 41.5 
Q 54.890625 34.8125 54.890625 23.390625 
Q 54.890625 11.625 47.5625 5.09375 
Q 40.234375 -1.421875 26.90625 -1.421875 
Q 22.3125 -1.421875 17.546875 -0.640625 
Q 12.796875 0.140625 7.71875 1.703125 
L 7.71875 11.625 
Q 12.109375 9.234375 16.796875 8.0625 
Q 21.484375 6.890625 26.703125 6.890625 
Q 35.15625 6.890625 40.078125 11.328125 
Q 45.015625 15.765625 45.015625 23.390625 
Q 45.015625 31 40.078125 35.4375 
Q 35.15625 39.890625 26.703125 39.890625 
Q 22.75 39.890625 18.8125 39.015625 
Q 14.890625 38.140625 10.796875 36.28125 
z
" id="DejaVuSans-35"/>
      </defs>
      <g style="fill:#262626;" transform="translate(24.099609 94.26682)scale(0.099 -0.099)">
       <use xlink:href="#DejaVuSans-2212"/>
       <use x="83.789062" xlink:href="#DejaVuSans-35"/>
      </g>
     </g>
    </g>
    <g id="ytick_3">
     <g id="text_3">
      <!-- 0 -->
      <g style="fill:#262626;" transform="translate(32.3955 67.706932)scale(0.099 -0.099)">
       <use xlink:href="#DejaVuSans-30"/>
      </g>
     </g>
    </g>
    <g id="ytick_4">
     <g id="text_4">
      <!-- 5 -->
      <g style="fill:#262626;" transform="translate(32.3955 41.147043)scale(0.099 -0.099)">
       <use xlink:href="#DejaVuSans-35"/>
      </g>
     </g>
    </g>
   </g>
   <g id="line2d_1">
    <path clip-path="url(#p0f19d66c4c)" d="M 54.837284 32.371747 
L 59.757957 31.648857 
L 64.678631 31.439783 
L 69.599304 33.340267 
L 74.519978 30.431414 
L 79.440651 28.434385 
L 84.361324 27.249411 
L 89.281998 25.777888 
L 94.202671 27.378384 
L 99.123345 31.270889 
L 104.044018 38.735337 
L 108.964691 50.6096 
L 113.885365 60.383213 
L 118.806038 69.715301 
L 123.726712 78.51602 
L 128.647385 84.315473 
L 133.568059 88.09072 
L 138.488732 90.717323 
L 143.409405 93.016342 
L 148.330079 97.506817 
L 153.250752 98.462285 
L 158.171426 101.079157 
L 163.092099 105.02064 
L 168.012772 105.995987 
L 172.933446 107.323741 
L 177.854119 108.822556 
L 182.774793 110.170784 
L 187.695466 110.855229 
" style="fill:none;stroke:#00008b;stroke-linecap:round;stroke-width:1.5;"/>
   </g>
   <g id="line2d_2">
    <path clip-path="url(#p0f19d66c4c)" d="M 54.837284 30.73146 
L 59.757957 32.043751 
L 64.678631 30.13091 
L 69.599304 33.698298 
L 74.519978 36.407198 
L 79.440651 38.205922 
L 84.361324 37.179522 
L 89.281998 37.919925 
L 94.202671 37.811179 
L 99.123345 39.548646 
L 104.044018 44.924508 
L 108.964691 51.602918 
L 113.885365 54.956212 
L 118.806038 62.877887 
L 123.726712 66.456554 
L 128.647385 70.963733 
L 133.568059 76.088561 
L 138.488732 84.172199 
L 143.409405 89.273766 
L 148.330079 95.7301 
L 153.250752 96.690506 
L 158.171426 102.051522 
L 163.092099 105.067359 
L 168.012772 107.066033 
L 172.933446 108.738567 
L 177.854119 110.440907 
L 182.774793 111.533392 
L 187.695466 112.107199 
" style="fill:none;stroke:#1e90ff;stroke-linecap:round;stroke-width:1.5;"/>
   </g>
   <g id="line2d_3">
    <path clip-path="url(#p0f19d66c4c)" d="M 54.837284 30.908067 
L 59.757957 35.042229 
L 64.678631 35.513878 
L 69.599304 36.000261 
L 74.519978 38.552464 
L 79.440651 38.546474 
L 84.361324 39.922159 
L 89.281998 38.644601 
L 94.202671 42.371241 
L 99.123345 46.815277 
L 104.044018 51.13733 
L 108.964691 53.758718 
L 113.885365 55.444314 
L 118.806038 60.813367 
L 123.726712 66.866151 
L 128.647385 73.17912 
L 133.568059 79.329492 
L 138.488732 85.858113 
L 143.409405 91.573567 
L 148.330079 93.809117 
L 153.250752 97.540934 
L 158.171426 99.819664 
L 163.092099 102.926306 
L 168.012772 104.855844 
L 172.933446 107.316135 
L 177.854119 108.901793 
L 182.774793 110.086484 
L 187.695466 110.76128 
" style="fill:none;stroke:#9932cc;stroke-linecap:round;stroke-width:1.5;"/>
   </g>
   <g id="line2d_4">
    <path clip-path="url(#p0f19d66c4c)" d="M 54.837284 30.995089 
L 59.757957 32.667208 
L 64.678631 36.928133 
L 69.599304 36.256163 
L 74.519978 34.771521 
L 79.440651 37.689223 
L 84.361324 37.21816 
L 89.281998 37.714742 
L 94.202671 42.616913 
L 99.123345 45.853201 
L 104.044018 50.783359 
L 108.964691 54.874501 
L 113.885365 56.711507 
L 118.806038 61.406634 
L 123.726712 67.026207 
L 128.647385 74.229708 
L 133.568059 81.396169 
L 138.488732 85.652371 
L 143.409405 90.466337 
L 148.330079 94.400352 
L 153.250752 98.079542 
L 158.171426 101.487859 
L 163.092099 103.599588 
L 168.012772 105.567632 
L 172.933446 107.531764 
L 177.854119 109.130089 
L 182.774793 110.428461 
L 187.695466 111.240454 
" style="fill:none;stroke:#3cb371;stroke-linecap:round;stroke-width:1.5;"/>
   </g>
   <g id="line2d_5">
    <path clip-path="url(#p0f19d66c4c)" d="M 54.837284 30.876163 
L 59.757957 33.728684 
L 64.678631 38.536507 
L 69.599304 39.460826 
L 74.519978 37.609196 
L 79.440651 40.071391 
L 84.361324 37.771595 
L 89.281998 39.066682 
L 94.202671 42.333693 
L 99.123345 47.567172 
L 104.044018 49.926802 
L 108.964691 53.753723 
L 113.885365 56.938206 
L 118.806038 61.212296 
L 123.726712 64.346747 
L 128.647385 71.422889 
L 133.568059 78.775665 
L 138.488732 84.477253 
L 143.409405 90.351254 
L 148.330079 94.333923 
L 153.250752 97.567936 
L 158.171426 100.193199 
L 163.092099 103.918038 
L 168.012772 105.311733 
L 172.933446 107.79076 
L 177.854119 109.378281 
L 182.774793 110.306108 
L 187.695466 110.694503 
" style="fill:none;stroke:#cd5c5c;stroke-linecap:round;stroke-width:1.5;"/>
   </g>
   <g id="line2d_6">
    <path clip-path="url(#p0f19d66c4c)" d="M 54.837284 28.751009 
L 59.757957 34.819965 
L 64.678631 36.240218 
L 69.599304 38.839573 
L 74.519978 38.884582 
L 79.440651 38.888028 
L 84.361324 37.898698 
L 89.281998 40.173718 
L 94.202671 44.781627 
L 99.123345 46.119043 
L 104.044018 51.157583 
L 108.964691 54.405219 
L 113.885365 56.129692 
L 118.806038 62.109896 
L 123.726712 64.673505 
L 128.647385 73.379629 
L 133.568059 77.915376 
L 138.488732 85.287182 
L 143.409405 93.036549 
L 148.330079 96.440231 
L 153.250752 99.951139 
L 158.171426 103.382669 
L 163.092099 105.703629 
L 168.012772 106.910332 
L 172.933446 109.219021 
L 177.854119 110.776103 
L 182.774793 111.531891 
L 187.695466 112.095907 
" style="fill:none;stroke:#ffa500;stroke-linecap:round;stroke-width:1.5;"/>
   </g>
   <g id="line2d_7">
    <path clip-path="url(#p0f19d66c4c)" d="M 54.837284 35.822026 
L 59.757957 34.724048 
L 64.678631 42.075565 
L 69.599304 37.724497 
L 74.519978 39.179118 
L 79.440651 40.232899 
L 84.361324 38.207877 
L 89.281998 37.548064 
L 94.202671 46.012334 
L 99.123345 43.936401 
L 104.044018 53.008443 
L 108.964691 55.148273 
L 113.885365 62.956387 
L 118.806038 59.03768 
L 123.726712 68.304787 
L 128.647385 74.87313 
L 133.568059 76.754275 
L 138.488732 86.925988 
L 143.409405 91.202618 
L 148.330079 94.864896 
L 153.250752 99.396785 
L 158.171426 102.382006 
L 163.092099 107.610616 
L 168.012772 108.742447 
L 172.933446 111.887766 
L 177.854119 112.778988 
L 182.774793 113.192818 
L 187.695466 113.209403 
" style="fill:none;stroke:#d3d3d3;stroke-linecap:round;stroke-width:1.5;"/>
   </g>
   <g id="patch_3">
    <path d="M 48.194375 117.580979 
L 48.194375 21.406313 
" style="fill:none;stroke:#262626;stroke-linecap:square;stroke-linejoin:miter;stroke-width:1.25;"/>
   </g>
   <g id="patch_4">
    <path d="M 194.338375 117.580979 
L 194.338375 21.406313 
" style="fill:none;stroke:#262626;stroke-linecap:square;stroke-linejoin:miter;stroke-width:1.25;"/>
   </g>
   <g id="patch_5">
    <path d="M 48.194375 117.580979 
L 194.338375 117.580979 
" style="fill:none;stroke:#262626;stroke-linecap:square;stroke-linejoin:miter;stroke-width:1.25;"/>
   </g>
   <g id="patch_6">
    <path d="M 48.194375 21.406313 
L 194.338375 21.406313 
" style="fill:none;stroke:#262626;stroke-linecap:square;stroke-linejoin:miter;stroke-width:1.25;"/>
   </g>
   <g id="text_5">
    <!-- Chaser -->
    <defs>
     <path d="M 64.40625 67.28125 
L 64.40625 56.890625 
Q 59.421875 61.53125 53.78125 63.8125 
Q 48.140625 66.109375 41.796875 66.109375 
Q 29.296875 66.109375 22.65625 58.46875 
Q 16.015625 50.828125 16.015625 36.375 
Q 16.015625 21.96875 22.65625 14.328125 
Q 29.296875 6.6875 41.796875 6.6875 
Q 48.140625 6.6875 53.78125 8.984375 
Q 59.421875 11.28125 64.40625 15.921875 
L 64.40625 5.609375 
Q 59.234375 2.09375 53.4375 0.328125 
Q 47.65625 -1.421875 41.21875 -1.421875 
Q 24.65625 -1.421875 15.125 8.703125 
Q 5.609375 18.84375 5.609375 36.375 
Q 5.609375 53.953125 15.125 64.078125 
Q 24.65625 74.21875 41.21875 74.21875 
Q 47.75 74.21875 53.53125 72.484375 
Q 59.328125 70.75 64.40625 67.28125 
z
" id="DejaVuSans-43"/>
     <path d="M 54.890625 33.015625 
L 54.890625 0 
L 45.90625 0 
L 45.90625 32.71875 
Q 45.90625 40.484375 42.875 44.328125 
Q 39.84375 48.1875 33.796875 48.1875 
Q 26.515625 48.1875 22.3125 43.546875 
Q 18.109375 38.921875 18.109375 30.90625 
L 18.109375 0 
L 9.078125 0 
L 9.078125 75.984375 
L 18.109375 75.984375 
L 18.109375 46.1875 
Q 21.34375 51.125 25.703125 53.5625 
Q 30.078125 56 35.796875 56 
Q 45.21875 56 50.046875 50.171875 
Q 54.890625 44.34375 54.890625 33.015625 
z
" id="DejaVuSans-68"/>
     <path d="M 34.28125 27.484375 
Q 23.390625 27.484375 19.1875 25 
Q 14.984375 22.515625 14.984375 16.5 
Q 14.984375 11.71875 18.140625 8.90625 
Q 21.296875 6.109375 26.703125 6.109375 
Q 34.1875 6.109375 38.703125 11.40625 
Q 43.21875 16.703125 43.21875 25.484375 
L 43.21875 27.484375 
z
M 52.203125 31.203125 
L 52.203125 0 
L 43.21875 0 
L 43.21875 8.296875 
Q 40.140625 3.328125 35.546875 0.953125 
Q 30.953125 -1.421875 24.3125 -1.421875 
Q 15.921875 -1.421875 10.953125 3.296875 
Q 6 8.015625 6 15.921875 
Q 6 25.140625 12.171875 29.828125 
Q 18.359375 34.515625 30.609375 34.515625 
L 43.21875 34.515625 
L 43.21875 35.40625 
Q 43.21875 41.609375 39.140625 45 
Q 35.0625 48.390625 27.6875 48.390625 
Q 23 48.390625 18.546875 47.265625 
Q 14.109375 46.140625 10.015625 43.890625 
L 10.015625 52.203125 
Q 14.9375 54.109375 19.578125 55.046875 
Q 24.21875 56 28.609375 56 
Q 40.484375 56 46.34375 49.84375 
Q 52.203125 43.703125 52.203125 31.203125 
z
" id="DejaVuSans-61"/>
     <path d="M 44.28125 53.078125 
L 44.28125 44.578125 
Q 40.484375 46.53125 36.375 47.5 
Q 32.28125 48.484375 27.875 48.484375 
Q 21.1875 48.484375 17.84375 46.4375 
Q 14.5 44.390625 14.5 40.28125 
Q 14.5 37.15625 16.890625 35.375 
Q 19.28125 33.59375 26.515625 31.984375 
L 29.59375 31.296875 
Q 39.15625 29.25 43.1875 25.515625 
Q 47.21875 21.78125 47.21875 15.09375 
Q 47.21875 7.46875 41.1875 3.015625 
Q 35.15625 -1.421875 24.609375 -1.421875 
Q 20.21875 -1.421875 15.453125 -0.5625 
Q 10.6875 0.296875 5.421875 2 
L 5.421875 11.28125 
Q 10.40625 8.6875 15.234375 7.390625 
Q 20.0625 6.109375 24.8125 6.109375 
Q 31.15625 6.109375 34.5625 8.28125 
Q 37.984375 10.453125 37.984375 14.40625 
Q 37.984375 18.0625 35.515625 20.015625 
Q 33.0625 21.96875 24.703125 23.78125 
L 21.578125 24.515625 
Q 13.234375 26.265625 9.515625 29.90625 
Q 5.8125 33.546875 5.8125 39.890625 
Q 5.8125 47.609375 11.28125 51.796875 
Q 16.75 56 26.8125 56 
Q 31.78125 56 36.171875 55.265625 
Q 40.578125 54.546875 44.28125 53.078125 
z
" id="DejaVuSans-73"/>
     <path d="M 56.203125 29.59375 
L 56.203125 25.203125 
L 14.890625 25.203125 
Q 15.484375 15.921875 20.484375 11.0625 
Q 25.484375 6.203125 34.421875 6.203125 
Q 39.59375 6.203125 44.453125 7.46875 
Q 49.3125 8.734375 54.109375 11.28125 
L 54.109375 2.78125 
Q 49.265625 0.734375 44.1875 -0.34375 
Q 39.109375 -1.421875 33.890625 -1.421875 
Q 20.796875 -1.421875 13.15625 6.1875 
Q 5.515625 13.8125 5.515625 26.8125 
Q 5.515625 40.234375 12.765625 48.109375 
Q 20.015625 56 32.328125 56 
Q 43.359375 56 49.78125 48.890625 
Q 56.203125 41.796875 56.203125 29.59375 
z
M 47.21875 32.234375 
Q 47.125 39.59375 43.09375 43.984375 
Q 39.0625 48.390625 32.421875 48.390625 
Q 24.90625 48.390625 20.390625 44.140625 
Q 15.875 39.890625 15.1875 32.171875 
z
" id="DejaVuSans-65"/>
     <path d="M 41.109375 46.296875 
Q 39.59375 47.171875 37.8125 47.578125 
Q 36.03125 48 33.890625 48 
Q 26.265625 48 22.1875 43.046875 
Q 18.109375 38.09375 18.109375 28.8125 
L 18.109375 0 
L 9.078125 0 
L 9.078125 54.6875 
L 18.109375 54.6875 
L 18.109375 46.1875 
Q 20.953125 51.171875 25.484375 53.578125 
Q 30.03125 56 36.53125 56 
Q 37.453125 56 38.578125 55.875 
Q 39.703125 55.765625 41.0625 55.515625 
z
" id="DejaVuSans-72"/>
    </defs>
    <g style="fill:#262626;" transform="translate(102.408562 15.406313)scale(0.108 -0.108)">
     <use xlink:href="#DejaVuSans-43"/>
     <use x="69.824219" xlink:href="#DejaVuSans-68"/>
     <use x="133.203125" xlink:href="#DejaVuSans-61"/>
     <use x="194.482422" xlink:href="#DejaVuSans-73"/>
     <use x="246.582031" xlink:href="#DejaVuSans-65"/>
     <use x="308.105469" xlink:href="#DejaVuSans-72"/>
    </g>
   </g>
  </g>
  <g id="axes_2">
   <g id="patch_7">
    <path d="M 265.762375 117.580979 
L 411.906375 117.580979 
L 411.906375 21.406313 
L 265.762375 21.406313 
z
" style="fill:#ffffff;"/>
   </g>
   <g id="matplotlib.axis_3"/>
   <g id="matplotlib.axis_4">
    <g id="ytick_5">
     <g id="text_6">
      <!-- −1.0 -->
      <defs>
       <path d="M 10.6875 12.40625 
L 21 12.40625 
L 21 0 
L 10.6875 0 
z
" id="DejaVuSans-2e"/>
      </defs>
      <g style="fill:#262626;" transform="translate(232.222391 93.86373)scale(0.099 -0.099)">
       <use xlink:href="#DejaVuSans-2212"/>
       <use x="83.789062" xlink:href="#DejaVuSans-31"/>
       <use x="147.412109" xlink:href="#DejaVuSans-2e"/>
       <use x="179.199219" xlink:href="#DejaVuSans-30"/>
      </g>
     </g>
    </g>
    <g id="ytick_6">
     <g id="text_7">
      <!-- −0.5 -->
      <g style="fill:#262626;" transform="translate(232.222391 48.066269)scale(0.099 -0.099)">
       <use xlink:href="#DejaVuSans-2212"/>
       <use x="83.789062" xlink:href="#DejaVuSans-30"/>
       <use x="147.412109" xlink:href="#DejaVuSans-2e"/>
       <use x="179.199219" xlink:href="#DejaVuSans-35"/>
      </g>
     </g>
    </g>
    <g id="text_8">
     <!-- $\mathrm{\mathbb{E}}$(Log Mean Weight) -->
     <defs>
      <path d="M 56.703125 0 
L 7 0 
L 7 66.203125 
L 56.703125 66.203125 
L 56.703125 61.796875 
L 23.59375 61.796875 
L 23.59375 36.296875 
L 53.5 36.296875 
L 53.5 31.90625 
L 23.59375 31.90625 
L 23.59375 4.40625 
L 56.703125 4.40625 
z
M 19.203125 4.40625 
L 19.203125 61.796875 
L 11.40625 61.796875 
L 11.40625 4.40625 
z
" id="STIXGeneral-Regular-1d53c"/>
      <path d="M 31 75.875 
Q 24.46875 64.65625 21.28125 53.65625 
Q 18.109375 42.671875 18.109375 31.390625 
Q 18.109375 20.125 21.3125 9.0625 
Q 24.515625 -2 31 -13.1875 
L 23.1875 -13.1875 
Q 15.875 -1.703125 12.234375 9.375 
Q 8.59375 20.453125 8.59375 31.390625 
Q 8.59375 42.28125 12.203125 53.3125 
Q 15.828125 64.359375 23.1875 75.875 
z
" id="DejaVuSans-28"/>
      <path d="M 9.8125 72.90625 
L 19.671875 72.90625 
L 19.671875 8.296875 
L 55.171875 8.296875 
L 55.171875 0 
L 9.8125 0 
z
" id="DejaVuSans-4c"/>
      <path d="M 30.609375 48.390625 
Q 23.390625 48.390625 19.1875 42.75 
Q 14.984375 37.109375 14.984375 27.296875 
Q 14.984375 17.484375 19.15625 11.84375 
Q 23.34375 6.203125 30.609375 6.203125 
Q 37.796875 6.203125 41.984375 11.859375 
Q 46.1875 17.53125 46.1875 27.296875 
Q 46.1875 37.015625 41.984375 42.703125 
Q 37.796875 48.390625 30.609375 48.390625 
z
M 30.609375 56 
Q 42.328125 56 49.015625 48.375 
Q 55.71875 40.765625 55.71875 27.296875 
Q 55.71875 13.875 49.015625 6.21875 
Q 42.328125 -1.421875 30.609375 -1.421875 
Q 18.84375 -1.421875 12.171875 6.21875 
Q 5.515625 13.875 5.515625 27.296875 
Q 5.515625 40.765625 12.171875 48.375 
Q 18.84375 56 30.609375 56 
z
" id="DejaVuSans-6f"/>
      <path d="M 45.40625 27.984375 
Q 45.40625 37.75 41.375 43.109375 
Q 37.359375 48.484375 30.078125 48.484375 
Q 22.859375 48.484375 18.828125 43.109375 
Q 14.796875 37.75 14.796875 27.984375 
Q 14.796875 18.265625 18.828125 12.890625 
Q 22.859375 7.515625 30.078125 7.515625 
Q 37.359375 7.515625 41.375 12.890625 
Q 45.40625 18.265625 45.40625 27.984375 
z
M 54.390625 6.78125 
Q 54.390625 -7.171875 48.1875 -13.984375 
Q 42 -20.796875 29.203125 -20.796875 
Q 24.46875 -20.796875 20.265625 -20.09375 
Q 16.0625 -19.390625 12.109375 -17.921875 
L 12.109375 -9.1875 
Q 16.0625 -11.328125 19.921875 -12.34375 
Q 23.78125 -13.375 27.78125 -13.375 
Q 36.625 -13.375 41.015625 -8.765625 
Q 45.40625 -4.15625 45.40625 5.171875 
L 45.40625 9.625 
Q 42.625 4.78125 38.28125 2.390625 
Q 33.9375 0 27.875 0 
Q 17.828125 0 11.671875 7.65625 
Q 5.515625 15.328125 5.515625 27.984375 
Q 5.515625 40.671875 11.671875 48.328125 
Q 17.828125 56 27.875 56 
Q 33.9375 56 38.28125 53.609375 
Q 42.625 51.21875 45.40625 46.390625 
L 45.40625 54.6875 
L 54.390625 54.6875 
z
" id="DejaVuSans-67"/>
      <path id="DejaVuSans-20"/>
      <path d="M 9.8125 72.90625 
L 24.515625 72.90625 
L 43.109375 23.296875 
L 61.8125 72.90625 
L 76.515625 72.90625 
L 76.515625 0 
L 66.890625 0 
L 66.890625 64.015625 
L 48.09375 14.015625 
L 38.1875 14.015625 
L 19.390625 64.015625 
L 19.390625 0 
L 9.8125 0 
z
" id="DejaVuSans-4d"/>
      <path d="M 54.890625 33.015625 
L 54.890625 0 
L 45.90625 0 
L 45.90625 32.71875 
Q 45.90625 40.484375 42.875 44.328125 
Q 39.84375 48.1875 33.796875 48.1875 
Q 26.515625 48.1875 22.3125 43.546875 
Q 18.109375 38.921875 18.109375 30.90625 
L 18.109375 0 
L 9.078125 0 
L 9.078125 54.6875 
L 18.109375 54.6875 
L 18.109375 46.1875 
Q 21.34375 51.125 25.703125 53.5625 
Q 30.078125 56 35.796875 56 
Q 45.21875 56 50.046875 50.171875 
Q 54.890625 44.34375 54.890625 33.015625 
z
" id="DejaVuSans-6e"/>
      <path d="M 3.328125 72.90625 
L 13.28125 72.90625 
L 28.609375 11.28125 
L 43.890625 72.90625 
L 54.984375 72.90625 
L 70.3125 11.28125 
L 85.59375 72.90625 
L 95.609375 72.90625 
L 77.296875 0 
L 64.890625 0 
L 49.515625 63.28125 
L 33.984375 0 
L 21.578125 0 
z
" id="DejaVuSans-57"/>
      <path d="M 9.421875 54.6875 
L 18.40625 54.6875 
L 18.40625 0 
L 9.421875 0 
z
M 9.421875 75.984375 
L 18.40625 75.984375 
L 18.40625 64.59375 
L 9.421875 64.59375 
z
" id="DejaVuSans-69"/>
      <path d="M 18.3125 70.21875 
L 18.3125 54.6875 
L 36.8125 54.6875 
L 36.8125 47.703125 
L 18.3125 47.703125 
L 18.3125 18.015625 
Q 18.3125 11.328125 20.140625 9.421875 
Q 21.96875 7.515625 27.59375 7.515625 
L 36.8125 7.515625 
L 36.8125 0 
L 27.59375 0 
Q 17.1875 0 13.234375 3.875 
Q 9.28125 7.765625 9.28125 18.015625 
L 9.28125 47.703125 
L 2.6875 47.703125 
L 2.6875 54.6875 
L 9.28125 54.6875 
L 9.28125 70.21875 
z
" id="DejaVuSans-74"/>
      <path d="M 8.015625 75.875 
L 15.828125 75.875 
Q 23.140625 64.359375 26.78125 53.3125 
Q 30.421875 42.28125 30.421875 31.390625 
Q 30.421875 20.453125 26.78125 9.375 
Q 23.140625 -1.703125 15.828125 -13.1875 
L 8.015625 -13.1875 
Q 14.5 -2 17.703125 9.0625 
Q 20.90625 20.125 20.90625 31.390625 
Q 20.90625 42.671875 17.703125 53.65625 
Q 14.5 64.65625 8.015625 75.875 
z
" id="DejaVuSans-29"/>
     </defs>
     <g style="fill:#262626;" transform="translate(225.954391 124.087646)rotate(-90)scale(0.108 -0.108)">
      <use transform="translate(0 0.015625)" xlink:href="#STIXGeneral-Regular-1d53c"/>
      <use transform="translate(62.199997 0.015625)" xlink:href="#DejaVuSans-28"/>
      <use transform="translate(101.213669 0.015625)" xlink:href="#DejaVuSans-4c"/>
      <use transform="translate(156.926559 0.015625)" xlink:href="#DejaVuSans-6f"/>
      <use transform="translate(218.1082 0.015625)" xlink:href="#DejaVuSans-67"/>
      <use transform="translate(281.584763 0.015625)" xlink:href="#DejaVuSans-20"/>
      <use transform="translate(313.371872 0.015625)" xlink:href="#DejaVuSans-4d"/>
      <use transform="translate(399.651169 0.015625)" xlink:href="#DejaVuSans-65"/>
      <use transform="translate(461.174606 0.015625)" xlink:href="#DejaVuSans-61"/>
      <use transform="translate(522.453903 0.015625)" xlink:href="#DejaVuSans-6e"/>
      <use transform="translate(585.832809 0.015625)" xlink:href="#DejaVuSans-20"/>
      <use transform="translate(617.619919 0.015625)" xlink:href="#DejaVuSans-57"/>
      <use transform="translate(716.496872 0.015625)" xlink:href="#DejaVuSans-65"/>
      <use transform="translate(778.020309 0.015625)" xlink:href="#DejaVuSans-69"/>
      <use transform="translate(805.803513 0.015625)" xlink:href="#DejaVuSans-67"/>
      <use transform="translate(869.280075 0.015625)" xlink:href="#DejaVuSans-68"/>
      <use transform="translate(932.658981 0.015625)" xlink:href="#DejaVuSans-74"/>
      <use transform="translate(971.867966 0.015625)" xlink:href="#DejaVuSans-29"/>
     </g>
    </g>
   </g>
   <g id="line2d_8">
    <path clip-path="url(#pb76d0246d8)" d="M 272.405284 50.982729 
L 277.325957 48.883819 
L 282.246631 50.353745 
L 287.167304 57.534303 
L 292.087978 58.980169 
L 297.008651 58.76903 
L 301.929324 55.949879 
L 306.849998 51.259527 
L 311.770671 49.633578 
L 316.691345 55.764989 
L 321.612018 60.772057 
L 326.532691 62.881251 
L 331.453365 64.112438 
L 336.374038 63.895493 
L 341.294712 61.304124 
L 346.215385 59.486344 
L 351.136059 58.104511 
L 356.056732 55.13838 
L 360.977405 52.438508 
L 365.898079 52.354309 
L 370.818752 50.677008 
L 375.739426 49.598701 
L 380.660099 51.753981 
L 385.580772 51.219083 
L 390.501446 52.741719 
L 395.422119 55.133525 
L 400.342793 55.730543 
L 405.263466 55.187967 
" style="fill:none;stroke:#00008b;stroke-linecap:round;stroke-width:1.5;"/>
   </g>
   <g id="line2d_9">
    <path clip-path="url(#pb76d0246d8)" d="M 272.405284 49.438744 
L 277.325957 49.803088 
L 282.246631 50.241347 
L 287.167304 55.686049 
L 292.087978 57.874117 
L 297.008651 61.435979 
L 301.929324 64.867908 
L 306.849998 71.097462 
L 311.770671 70.727837 
L 316.691345 69.376778 
L 321.612018 71.782822 
L 326.532691 71.269561 
L 331.453365 76.800677 
L 336.374038 78.91841 
L 341.294712 80.867578 
L 346.215385 81.467279 
L 351.136059 83.536735 
L 356.056732 84.755447 
L 360.977405 84.537848 
L 365.898079 84.086417 
L 370.818752 82.422166 
L 375.739426 83.459879 
L 380.660099 81.580964 
L 385.580772 83.686297 
L 390.501446 81.589834 
L 395.422119 81.252507 
L 400.342793 77.200274 
L 405.263466 75.969251 
" style="fill:none;stroke:#1e90ff;stroke-linecap:round;stroke-width:1.5;"/>
   </g>
   <g id="line2d_10">
    <path clip-path="url(#pb76d0246d8)" d="M 272.405284 49.482504 
L 277.325957 50.005589 
L 282.246631 53.754456 
L 287.167304 56.922053 
L 292.087978 60.827116 
L 297.008651 70.026649 
L 301.929324 82.976255 
L 306.849998 89.316373 
L 311.770671 93.581077 
L 316.691345 85.829478 
L 321.612018 76.225675 
L 326.532691 72.278365 
L 331.453365 67.640922 
L 336.374038 70.274295 
L 341.294712 74.577421 
L 346.215385 75.357991 
L 351.136059 74.655346 
L 356.056732 71.756968 
L 360.977405 69.952054 
L 365.898079 67.494308 
L 370.818752 65.753544 
L 375.739426 63.947833 
L 380.660099 63.991662 
L 385.580772 62.584571 
L 390.501446 60.829413 
L 395.422119 58.386602 
L 400.342793 55.95545 
L 405.263466 53.754588 
" style="fill:none;stroke:#9932cc;stroke-linecap:round;stroke-width:1.5;"/>
   </g>
   <g id="line2d_11">
    <path clip-path="url(#pb76d0246d8)" d="M 272.405284 49.598995 
L 277.325957 51.12955 
L 282.246631 53.525394 
L 287.167304 55.342818 
L 292.087978 61.121717 
L 297.008651 69.960693 
L 301.929324 82.835183 
L 306.849998 88.712941 
L 311.770671 86.790337 
L 316.691345 83.133564 
L 321.612018 77.565137 
L 326.532691 75.079709 
L 331.453365 74.400641 
L 336.374038 78.663021 
L 341.294712 78.267469 
L 346.215385 80.650447 
L 351.136059 77.682232 
L 356.056732 79.408374 
L 360.977405 76.729126 
L 365.898079 74.587427 
L 370.818752 72.927936 
L 375.739426 71.922561 
L 380.660099 70.850372 
L 385.580772 68.673949 
L 390.501446 67.597439 
L 395.422119 65.611179 
L 400.342793 64.18518 
L 405.263466 63.067493 
" style="fill:none;stroke:#3cb371;stroke-linecap:round;stroke-width:1.5;"/>
   </g>
   <g id="line2d_12">
    <path clip-path="url(#pb76d0246d8)" d="M 272.405284 49.385148 
L 277.325957 50.807716 
L 282.246631 54.654191 
L 287.167304 56.530759 
L 292.087978 58.488477 
L 297.008651 62.359525 
L 301.929324 72.949352 
L 306.849998 78.520423 
L 311.770671 74.724904 
L 316.691345 67.818718 
L 321.612018 64.343183 
L 326.532691 66.48124 
L 331.453365 66.032231 
L 336.374038 69.870114 
L 341.294712 70.958199 
L 346.215385 72.000914 
L 351.136059 69.974356 
L 356.056732 67.997596 
L 360.977405 65.081997 
L 365.898079 64.401992 
L 370.818752 63.037388 
L 375.739426 64.242642 
L 380.660099 63.377071 
L 385.580772 62.067561 
L 390.501446 61.273664 
L 395.422119 59.668649 
L 400.342793 55.439904 
L 405.263466 53.266139 
" style="fill:none;stroke:#cd5c5c;stroke-linecap:round;stroke-width:1.5;"/>
   </g>
   <g id="line2d_13">
    <path clip-path="url(#pb76d0246d8)" d="M 272.405284 49.872739 
L 277.325957 51.242888 
L 282.246631 55.285065 
L 287.167304 55.623655 
L 292.087978 59.728452 
L 297.008651 69.521771 
L 301.929324 79.267684 
L 306.849998 88.159478 
L 311.770671 87.963457 
L 316.691345 82.13253 
L 321.612018 75.712749 
L 326.532691 78.668783 
L 331.453365 81.225281 
L 336.374038 81.241677 
L 341.294712 82.94968 
L 346.215385 81.635077 
L 351.136059 81.916619 
L 356.056732 81.860267 
L 360.977405 80.579752 
L 365.898079 78.773235 
L 370.818752 78.07611 
L 375.739426 77.565722 
L 380.660099 75.797014 
L 385.580772 76.304856 
L 390.501446 76.195741 
L 395.422119 74.572611 
L 400.342793 72.681366 
L 405.263466 73.447644 
" style="fill:none;stroke:#ffa500;stroke-linecap:round;stroke-width:1.5;"/>
   </g>
   <g id="line2d_14">
    <path clip-path="url(#pb76d0246d8)" d="M 272.405284 49.69328 
L 277.325957 50.808773 
L 282.246631 53.359083 
L 287.167304 54.097497 
L 292.087978 53.264742 
L 297.008651 58.94724 
L 301.929324 67.835329 
L 306.849998 63.47431 
L 311.770671 65.121391 
L 316.691345 70.820468 
L 321.612018 74.500201 
L 326.532691 81.955548 
L 331.453365 85.021619 
L 336.374038 88.816101 
L 341.294712 91.465153 
L 346.215385 93.440954 
L 351.136059 95.976094 
L 356.056732 97.887029 
L 360.977405 98.329279 
L 365.898079 95.856037 
L 370.818752 94.825566 
L 375.739426 93.798599 
L 380.660099 94.199038 
L 385.580772 93.766031 
L 390.501446 92.342061 
L 395.422119 92.341517 
L 400.342793 91.011547 
L 405.263466 90.065873 
" style="fill:none;stroke:#d3d3d3;stroke-linecap:round;stroke-width:1.5;"/>
   </g>
   <g id="patch_8">
    <path d="M 265.762375 117.580979 
L 265.762375 21.406312 
" style="fill:none;stroke:#262626;stroke-linecap:square;stroke-linejoin:miter;stroke-width:1.25;"/>
   </g>
   <g id="patch_9">
    <path d="M 411.906375 117.580979 
L 411.906375 21.406312 
" style="fill:none;stroke:#262626;stroke-linecap:square;stroke-linejoin:miter;stroke-width:1.25;"/>
   </g>
   <g id="patch_10">
    <path d="M 265.762375 117.580979 
L 411.906375 117.580979 
" style="fill:none;stroke:#262626;stroke-linecap:square;stroke-linejoin:miter;stroke-width:1.25;"/>
   </g>
   <g id="patch_11">
    <path d="M 265.762375 21.406313 
L 411.906375 21.406313 
" style="fill:none;stroke:#262626;stroke-linecap:square;stroke-linejoin:miter;stroke-width:1.25;"/>
   </g>
   <g id="text_9">
    <!-- Runner -->
    <defs>
     <path d="M 44.390625 34.1875 
Q 47.5625 33.109375 50.5625 29.59375 
Q 53.5625 26.078125 56.59375 19.921875 
L 66.609375 0 
L 56 0 
L 46.6875 18.703125 
Q 43.0625 26.03125 39.671875 28.421875 
Q 36.28125 30.8125 30.421875 30.8125 
L 19.671875 30.8125 
L 19.671875 0 
L 9.8125 0 
L 9.8125 72.90625 
L 32.078125 72.90625 
Q 44.578125 72.90625 50.734375 67.671875 
Q 56.890625 62.453125 56.890625 51.90625 
Q 56.890625 45.015625 53.6875 40.46875 
Q 50.484375 35.9375 44.390625 34.1875 
z
M 19.671875 64.796875 
L 19.671875 38.921875 
L 32.078125 38.921875 
Q 39.203125 38.921875 42.84375 42.21875 
Q 46.484375 45.515625 46.484375 51.90625 
Q 46.484375 58.296875 42.84375 61.546875 
Q 39.203125 64.796875 32.078125 64.796875 
z
" id="DejaVuSans-52"/>
     <path d="M 8.5 21.578125 
L 8.5 54.6875 
L 17.484375 54.6875 
L 17.484375 21.921875 
Q 17.484375 14.15625 20.5 10.265625 
Q 23.53125 6.390625 29.59375 6.390625 
Q 36.859375 6.390625 41.078125 11.03125 
Q 45.3125 15.671875 45.3125 23.6875 
L 45.3125 54.6875 
L 54.296875 54.6875 
L 54.296875 0 
L 45.3125 0 
L 45.3125 8.40625 
Q 42.046875 3.421875 37.71875 1 
Q 33.40625 -1.421875 27.6875 -1.421875 
Q 18.265625 -1.421875 13.375 4.4375 
Q 8.5 10.296875 8.5 21.578125 
z
M 31.109375 56 
z
" id="DejaVuSans-75"/>
    </defs>
    <g style="fill:#262626;" transform="translate(319.27625 15.406313)scale(0.108 -0.108)">
     <use xlink:href="#DejaVuSans-52"/>
     <use x="69.419922" xlink:href="#DejaVuSans-75"/>
     <use x="132.798828" xlink:href="#DejaVuSans-6e"/>
     <use x="196.177734" xlink:href="#DejaVuSans-6e"/>
     <use x="259.556641" xlink:href="#DejaVuSans-65"/>
     <use x="321.080078" xlink:href="#DejaVuSans-72"/>
    </g>
   </g>
  </g>
  <g id="axes_3">
   <g id="patch_12">
    <path d="M 48.194375 249.319646 
L 194.338375 249.319646 
L 194.338375 153.144979 
L 48.194375 153.144979 
z
" style="fill:#ffffff;"/>
   </g>
   <g id="matplotlib.axis_5"/>
   <g id="matplotlib.axis_6">
    <g id="ytick_7">
     <g id="text_10">
      <!-- 0.00 -->
      <g style="fill:#262626;" transform="translate(16.651406 253.080872)scale(0.099 -0.099)">
       <use xlink:href="#DejaVuSans-30"/>
       <use x="63.623047" xlink:href="#DejaVuSans-2e"/>
       <use x="95.410156" xlink:href="#DejaVuSans-30"/>
       <use x="159.033203" xlink:href="#DejaVuSans-30"/>
      </g>
     </g>
    </g>
    <g id="ytick_8">
     <g id="text_11">
      <!-- 0.25 -->
      <defs>
       <path d="M 19.1875 8.296875 
L 53.609375 8.296875 
L 53.609375 0 
L 7.328125 0 
L 7.328125 8.296875 
Q 12.9375 14.109375 22.625 23.890625 
Q 32.328125 33.6875 34.8125 36.53125 
Q 39.546875 41.84375 41.421875 45.53125 
Q 43.3125 49.21875 43.3125 52.78125 
Q 43.3125 58.59375 39.234375 62.25 
Q 35.15625 65.921875 28.609375 65.921875 
Q 23.96875 65.921875 18.8125 64.3125 
Q 13.671875 62.703125 7.8125 59.421875 
L 7.8125 69.390625 
Q 13.765625 71.78125 18.9375 73 
Q 24.125 74.21875 28.421875 74.21875 
Q 39.75 74.21875 46.484375 68.546875 
Q 53.21875 62.890625 53.21875 53.421875 
Q 53.21875 48.921875 51.53125 44.890625 
Q 49.859375 40.875 45.40625 35.40625 
Q 44.1875 33.984375 37.640625 27.21875 
Q 31.109375 20.453125 19.1875 8.296875 
z
" id="DejaVuSans-32"/>
      </defs>
      <g style="fill:#262626;" transform="translate(16.651406 229.037206)scale(0.099 -0.099)">
       <use xlink:href="#DejaVuSans-30"/>
       <use x="63.623047" xlink:href="#DejaVuSans-2e"/>
       <use x="95.410156" xlink:href="#DejaVuSans-32"/>
       <use x="159.033203" xlink:href="#DejaVuSans-35"/>
      </g>
     </g>
    </g>
    <g id="ytick_9">
     <g id="text_12">
      <!-- 0.50 -->
      <g style="fill:#262626;" transform="translate(16.651406 204.993539)scale(0.099 -0.099)">
       <use xlink:href="#DejaVuSans-30"/>
       <use x="63.623047" xlink:href="#DejaVuSans-2e"/>
       <use x="95.410156" xlink:href="#DejaVuSans-35"/>
       <use x="159.033203" xlink:href="#DejaVuSans-30"/>
      </g>
     </g>
    </g>
    <g id="ytick_10">
     <g id="text_13">
      <!-- 0.75 -->
      <defs>
       <path d="M 8.203125 72.90625 
L 55.078125 72.90625 
L 55.078125 68.703125 
L 28.609375 0 
L 18.3125 0 
L 43.21875 64.59375 
L 8.203125 64.59375 
z
" id="DejaVuSans-37"/>
      </defs>
      <g style="fill:#262626;" transform="translate(16.651406 180.949872)scale(0.099 -0.099)">
       <use xlink:href="#DejaVuSans-30"/>
       <use x="63.623047" xlink:href="#DejaVuSans-2e"/>
       <use x="95.410156" xlink:href="#DejaVuSans-37"/>
       <use x="159.033203" xlink:href="#DejaVuSans-35"/>
      </g>
     </g>
    </g>
    <g id="ytick_11">
     <g id="text_14">
      <!-- 1.00 -->
      <g style="fill:#262626;" transform="translate(16.651406 156.906206)scale(0.099 -0.099)">
       <use xlink:href="#DejaVuSans-31"/>
       <use x="63.623047" xlink:href="#DejaVuSans-2e"/>
       <use x="95.410156" xlink:href="#DejaVuSans-30"/>
       <use x="159.033203" xlink:href="#DejaVuSans-30"/>
      </g>
     </g>
    </g>
   </g>
   <g id="line2d_15">
    <path clip-path="url(#p65ab5f4060)" d="M 54.837284 248.960371 
L 59.757957 248.970489 
L 64.678631 248.904657 
L 69.599304 248.954765 
L 74.519978 248.94172 
L 79.440651 248.81954 
L 84.361324 248.857291 
L 89.281998 248.601959 
L 94.202671 248.321475 
L 99.123345 248.210319 
L 104.044018 248.541873 
L 108.964691 248.673941 
L 113.885365 248.540023 
L 118.806038 248.463903 
L 123.726712 248.493481 
L 128.647385 248.670446 
L 133.568059 248.775987 
L 138.488732 248.918148 
L 143.409405 248.947556 
L 148.330079 248.853094 
L 153.250752 248.880682 
L 158.171426 248.572993 
L 163.092099 247.758248 
L 168.012772 246.525915 
L 172.933446 242.986207 
L 177.854119 234.108495 
L 182.774793 212.739925 
L 187.695466 196.334313 
" style="fill:none;stroke:#00008b;stroke-linecap:round;stroke-width:1.5;"/>
   </g>
   <g id="line2d_16">
    <path clip-path="url(#p65ab5f4060)" d="M 54.837284 247.94657 
L 59.757957 248.380722 
L 64.678631 249.014424 
L 69.599304 248.103669 
L 74.519978 248.348221 
L 79.440651 248.947646 
L 84.361324 248.56825 
L 89.281998 248.874489 
L 94.202671 248.913449 
L 99.123345 248.338252 
L 104.044018 248.080157 
L 108.964691 248.004251 
L 113.885365 247.865783 
L 118.806038 247.911643 
L 123.726712 248.049842 
L 128.647385 248.188888 
L 133.568059 248.242185 
L 138.488732 248.006423 
L 143.409405 248.1922 
L 148.330079 247.62273 
L 153.250752 247.546284 
L 158.171426 246.163719 
L 163.092099 243.59021 
L 168.012772 238.946747 
L 172.933446 233.008606 
L 177.854119 213.77167 
L 182.774793 187.639333 
L 187.695466 176.172485 
" style="fill:none;stroke:#1e90ff;stroke-linecap:round;stroke-width:1.5;"/>
   </g>
   <g id="line2d_17">
    <path clip-path="url(#p65ab5f4060)" d="M 54.837284 247.607127 
L 59.757957 245.612245 
L 64.678631 245.899245 
L 69.599304 247.150146 
L 74.519978 245.506292 
L 79.440651 245.708452 
L 84.361324 245.515139 
L 89.281998 246.337639 
L 94.202671 246.764287 
L 99.123345 247.119313 
L 104.044018 246.488696 
L 108.964691 246.772042 
L 113.885365 245.517842 
L 118.806038 244.572188 
L 123.726712 245.529314 
L 128.647385 246.111909 
L 133.568059 245.126234 
L 138.488732 246.198051 
L 143.409405 245.42901 
L 148.330079 246.046124 
L 153.250752 243.032988 
L 158.171426 238.939689 
L 163.092099 231.417139 
L 168.012772 222.348653 
L 172.933446 205.967057 
L 177.854119 186.755732 
L 182.774793 167.906743 
L 187.695466 159.852977 
" style="fill:none;stroke:#9932cc;stroke-linecap:round;stroke-width:1.5;"/>
   </g>
   <g id="line2d_18">
    <path clip-path="url(#p65ab5f4060)" d="M 54.837284 246.574217 
L 59.757957 244.509991 
L 64.678631 244.961364 
L 69.599304 245.519524 
L 74.519978 248.718165 
L 79.440651 246.540634 
L 84.361324 245.052491 
L 89.281998 243.77914 
L 94.202671 248.131218 
L 99.123345 246.933238 
L 104.044018 245.396789 
L 108.964691 244.242154 
L 113.885365 243.926661 
L 118.806038 241.802604 
L 123.726712 242.593148 
L 128.647385 243.344482 
L 133.568059 244.618559 
L 138.488732 245.978501 
L 143.409405 244.481279 
L 148.330079 243.05805 
L 153.250752 240.534027 
L 158.171426 232.839735 
L 163.092099 223.343367 
L 168.012772 213.588801 
L 172.933446 200.479997 
L 177.854119 184.004447 
L 182.774793 169.36925 
L 187.695466 162.722588 
" style="fill:none;stroke:#3cb371;stroke-linecap:round;stroke-width:1.5;"/>
   </g>
   <g id="line2d_19">
    <path clip-path="url(#p65ab5f4060)" d="M 54.837284 244.497626 
L 59.757957 245.19217 
L 64.678631 239.91471 
L 69.599304 240.058792 
L 74.519978 237.687614 
L 79.440651 243.66595 
L 84.361324 241.193963 
L 89.281998 243.059621 
L 94.202671 244.173648 
L 99.123345 245.631208 
L 104.044018 245.936917 
L 108.964691 244.546425 
L 113.885365 238.761091 
L 118.806038 240.30875 
L 123.726712 239.816988 
L 128.647385 241.27408 
L 133.568059 241.381839 
L 138.488732 243.001995 
L 143.409405 242.662483 
L 148.330079 237.911835 
L 153.250752 232.721384 
L 158.171426 237.689848 
L 163.092099 227.761191 
L 168.012772 214.771963 
L 172.933446 191.018756 
L 177.854119 172.876914 
L 182.774793 161.873217 
L 187.695466 158.289252 
" style="fill:none;stroke:#cd5c5c;stroke-linecap:round;stroke-width:1.5;"/>
   </g>
   <g id="line2d_20">
    <path clip-path="url(#p65ab5f4060)" d="M 54.837284 245.067734 
L 59.757957 241.16293 
L 64.678631 242.952455 
L 69.599304 235.427226 
L 74.519978 236.503222 
L 79.440651 233.92687 
L 84.361324 242.924809 
L 89.281998 238.367604 
L 94.202671 239.095172 
L 99.123345 246.499708 
L 104.044018 240.703286 
L 108.964691 244.696401 
L 113.885365 237.148955 
L 118.806038 241.434857 
L 123.726712 241.036885 
L 128.647385 243.587677 
L 133.568059 242.504313 
L 138.488732 242.142284 
L 143.409405 240.158903 
L 148.330079 236.933256 
L 153.250752 229.952433 
L 158.171426 222.245668 
L 163.092099 222.782271 
L 168.012772 219.029194 
L 172.933446 210.092117 
L 177.854119 176.566972 
L 182.774793 168.021942 
L 187.695466 160.29083 
" style="fill:none;stroke:#ffa500;stroke-linecap:round;stroke-width:1.5;"/>
   </g>
   <g id="line2d_21">
    <path clip-path="url(#p65ab5f4060)" d="M 54.837284 237.874939 
L 59.757957 220.431548 
L 64.678631 241.663684 
L 69.599304 221.850609 
L 74.519978 229.706665 
L 79.440651 233.843782 
L 84.361324 220.124517 
L 89.281998 228.96375 
L 94.202671 231.590462 
L 99.123345 243.051089 
L 104.044018 239.400152 
L 108.964691 238.437543 
L 113.885365 243.244083 
L 118.806038 236.806986 
L 123.726712 240.927353 
L 128.647385 235.50058 
L 133.568059 240.47649 
L 138.488732 237.891768 
L 143.409405 237.236038 
L 148.330079 242.641361 
L 153.250752 238.879647 
L 158.171426 230.691989 
L 163.092099 216.916615 
L 168.012772 189.9739 
L 172.933446 166.770147 
L 177.854119 161.896063 
L 182.774793 157.253212 
L 187.695466 157.727279 
" style="fill:none;stroke:#d3d3d3;stroke-linecap:round;stroke-width:1.5;"/>
   </g>
   <g id="patch_13">
    <path d="M 48.194375 249.319646 
L 48.194375 153.144979 
" style="fill:none;stroke:#262626;stroke-linecap:square;stroke-linejoin:miter;stroke-width:1.25;"/>
   </g>
   <g id="patch_14">
    <path d="M 194.338375 249.319646 
L 194.338375 153.144979 
" style="fill:none;stroke:#262626;stroke-linecap:square;stroke-linejoin:miter;stroke-width:1.25;"/>
   </g>
   <g id="patch_15">
    <path d="M 48.194375 249.319646 
L 194.338375 249.319646 
" style="fill:none;stroke:#262626;stroke-linecap:square;stroke-linejoin:miter;stroke-width:1.25;"/>
   </g>
   <g id="patch_16">
    <path d="M 48.194375 153.144979 
L 194.338375 153.144979 
" style="fill:none;stroke:#262626;stroke-linecap:square;stroke-linejoin:miter;stroke-width:1.25;"/>
   </g>
  </g>
  <g id="axes_4">
   <g id="patch_17">
    <path d="M 265.762375 249.319646 
L 411.906375 249.319646 
L 411.906375 153.144979 
L 265.762375 153.144979 
z
" style="fill:#ffffff;"/>
   </g>
   <g id="matplotlib.axis_7">
    <g id="xtick_1">
     <g id="text_15">
      <!-- 0 -->
      <g style="fill:#262626;" transform="translate(264.335173 266.342099)scale(0.099 -0.099)">
       <use xlink:href="#DejaVuSans-30"/>
      </g>
     </g>
    </g>
    <g id="xtick_2">
     <g id="text_16">
      <!-- 10 -->
      <g style="fill:#262626;" transform="translate(310.39247 266.342099)scale(0.099 -0.099)">
       <use xlink:href="#DejaVuSans-31"/>
       <use x="63.623047" xlink:href="#DejaVuSans-30"/>
      </g>
     </g>
    </g>
    <g id="xtick_3">
     <g id="text_17">
      <!-- 20 -->
      <g style="fill:#262626;" transform="translate(359.599204 266.342099)scale(0.099 -0.099)">
       <use xlink:href="#DejaVuSans-32"/>
       <use x="63.623047" xlink:href="#DejaVuSans-30"/>
      </g>
     </g>
    </g>
   </g>
   <g id="matplotlib.axis_8">
    <g id="ytick_12">
     <g id="text_18">
      <!-- 0.00 -->
      <g style="fill:#262626;" transform="translate(234.219406 253.080872)scale(0.099 -0.099)">
       <use xlink:href="#DejaVuSans-30"/>
       <use x="63.623047" xlink:href="#DejaVuSans-2e"/>
       <use x="95.410156" xlink:href="#DejaVuSans-30"/>
       <use x="159.033203" xlink:href="#DejaVuSans-30"/>
      </g>
     </g>
    </g>
    <g id="ytick_13">
     <g id="text_19">
      <!-- 0.25 -->
      <g style="fill:#262626;" transform="translate(234.219406 229.037206)scale(0.099 -0.099)">
       <use xlink:href="#DejaVuSans-30"/>
       <use x="63.623047" xlink:href="#DejaVuSans-2e"/>
       <use x="95.410156" xlink:href="#DejaVuSans-32"/>
       <use x="159.033203" xlink:href="#DejaVuSans-35"/>
      </g>
     </g>
    </g>
    <g id="ytick_14">
     <g id="text_20">
      <!-- 0.50 -->
      <g style="fill:#262626;" transform="translate(234.219406 204.993539)scale(0.099 -0.099)">
       <use xlink:href="#DejaVuSans-30"/>
       <use x="63.623047" xlink:href="#DejaVuSans-2e"/>
       <use x="95.410156" xlink:href="#DejaVuSans-35"/>
       <use x="159.033203" xlink:href="#DejaVuSans-30"/>
      </g>
     </g>
    </g>
    <g id="ytick_15">
     <g id="text_21">
      <!-- 0.75 -->
      <g style="fill:#262626;" transform="translate(234.219406 180.949872)scale(0.099 -0.099)">
       <use xlink:href="#DejaVuSans-30"/>
       <use x="63.623047" xlink:href="#DejaVuSans-2e"/>
       <use x="95.410156" xlink:href="#DejaVuSans-37"/>
       <use x="159.033203" xlink:href="#DejaVuSans-35"/>
      </g>
     </g>
    </g>
    <g id="ytick_16">
     <g id="text_22">
      <!-- 1.00 -->
      <g style="fill:#262626;" transform="translate(234.219406 156.906206)scale(0.099 -0.099)">
       <use xlink:href="#DejaVuSans-31"/>
       <use x="63.623047" xlink:href="#DejaVuSans-2e"/>
       <use x="95.410156" xlink:href="#DejaVuSans-30"/>
       <use x="159.033203" xlink:href="#DejaVuSans-30"/>
      </g>
     </g>
    </g>
    <g id="text_23">
     <!-- ESS/K -->
     <defs>
      <path d="M 9.8125 72.90625 
L 55.90625 72.90625 
L 55.90625 64.59375 
L 19.671875 64.59375 
L 19.671875 43.015625 
L 54.390625 43.015625 
L 54.390625 34.71875 
L 19.671875 34.71875 
L 19.671875 8.296875 
L 56.78125 8.296875 
L 56.78125 0 
L 9.8125 0 
z
" id="DejaVuSans-45"/>
      <path d="M 53.515625 70.515625 
L 53.515625 60.890625 
Q 47.90625 63.578125 42.921875 64.890625 
Q 37.9375 66.21875 33.296875 66.21875 
Q 25.25 66.21875 20.875 63.09375 
Q 16.5 59.96875 16.5 54.203125 
Q 16.5 49.359375 19.40625 46.890625 
Q 22.3125 44.4375 30.421875 42.921875 
L 36.375 41.703125 
Q 47.40625 39.59375 52.65625 34.296875 
Q 57.90625 29 57.90625 20.125 
Q 57.90625 9.515625 50.796875 4.046875 
Q 43.703125 -1.421875 29.984375 -1.421875 
Q 24.8125 -1.421875 18.96875 -0.25 
Q 13.140625 0.921875 6.890625 3.21875 
L 6.890625 13.375 
Q 12.890625 10.015625 18.65625 8.296875 
Q 24.421875 6.59375 29.984375 6.59375 
Q 38.421875 6.59375 43.015625 9.90625 
Q 47.609375 13.234375 47.609375 19.390625 
Q 47.609375 24.75 44.3125 27.78125 
Q 41.015625 30.8125 33.5 32.328125 
L 27.484375 33.5 
Q 16.453125 35.6875 11.515625 40.375 
Q 6.59375 45.0625 6.59375 53.421875 
Q 6.59375 63.09375 13.40625 68.65625 
Q 20.21875 74.21875 32.171875 74.21875 
Q 37.3125 74.21875 42.625 73.28125 
Q 47.953125 72.359375 53.515625 70.515625 
z
" id="DejaVuSans-53"/>
      <path d="M 25.390625 72.90625 
L 33.6875 72.90625 
L 8.296875 -9.28125 
L 0 -9.28125 
z
" id="DejaVuSans-2f"/>
      <path d="M 9.8125 72.90625 
L 19.671875 72.90625 
L 19.671875 42.09375 
L 52.390625 72.90625 
L 65.09375 72.90625 
L 28.90625 38.921875 
L 67.671875 0 
L 54.6875 0 
L 19.671875 35.109375 
L 19.671875 0 
L 9.8125 0 
z
" id="DejaVuSans-4b"/>
     </defs>
     <g style="fill:#262626;" transform="translate(227.973344 216.861094)rotate(-90)scale(0.108 -0.108)">
      <use xlink:href="#DejaVuSans-45"/>
      <use x="63.183594" xlink:href="#DejaVuSans-53"/>
      <use x="126.660156" xlink:href="#DejaVuSans-53"/>
      <use x="190.136719" xlink:href="#DejaVuSans-2f"/>
      <use x="223.828125" xlink:href="#DejaVuSans-4b"/>
     </g>
    </g>
   </g>
   <g id="line2d_22">
    <path clip-path="url(#p0774e95522)" d="M 272.405284 192.294009 
L 277.325957 190.899748 
L 282.246631 191.495381 
L 287.167304 195.339937 
L 292.087978 195.761406 
L 297.008651 194.719797 
L 301.929324 194.162803 
L 306.849998 191.818267 
L 311.770671 190.693602 
L 316.691345 193.660334 
L 321.612018 196.108808 
L 326.532691 198.116652 
L 331.453365 199.099628 
L 336.374038 199.191066 
L 341.294712 198.005945 
L 346.215385 196.859803 
L 351.136059 195.982398 
L 356.056732 194.206511 
L 360.977405 193.217871 
L 365.898079 193.516424 
L 370.818752 192.862465 
L 375.739426 192.483909 
L 380.660099 193.787307 
L 385.580772 193.490231 
L 390.501446 194.175828 
L 395.422119 195.532693 
L 400.342793 195.770083 
L 405.263466 195.642547 
" style="fill:none;stroke:#00008b;stroke-linecap:round;stroke-width:1.5;"/>
   </g>
   <g id="line2d_23">
    <path clip-path="url(#p0774e95522)" d="M 272.405284 166.549321 
L 277.325957 166.76392 
L 282.246631 166.544659 
L 287.167304 168.62337 
L 292.087978 169.124045 
L 297.008651 171.391531 
L 301.929324 172.701318 
L 306.849998 175.658031 
L 311.770671 176.092137 
L 316.691345 175.316861 
L 321.612018 174.508565 
L 326.532691 174.389332 
L 331.453365 175.410416 
L 336.374038 175.73383 
L 341.294712 175.765905 
L 346.215385 175.748892 
L 351.136059 176.193559 
L 356.056732 177.639219 
L 360.977405 177.669091 
L 365.898079 177.914793 
L 370.818752 177.34264 
L 375.739426 177.74925 
L 380.660099 176.359662 
L 385.580772 177.603312 
L 390.501446 177.485291 
L 395.422119 177.195372 
L 400.342793 175.757344 
L 405.263466 175.866101 
" style="fill:none;stroke:#1e90ff;stroke-linecap:round;stroke-width:1.5;"/>
   </g>
   <g id="line2d_24">
    <path clip-path="url(#p0774e95522)" d="M 272.405284 156.814762 
L 277.325957 156.860914 
L 282.246631 157.266022 
L 287.167304 157.685057 
L 292.087978 158.715473 
L 297.008651 161.80923 
L 301.929324 165.575504 
L 306.849998 166.941462 
L 311.770671 169.507288 
L 316.691345 170.299321 
L 321.612018 166.911063 
L 326.532691 164.31937 
L 331.453365 160.924529 
L 336.374038 160.92478 
L 341.294712 160.716008 
L 346.215385 160.97982 
L 351.136059 160.470178 
L 356.056732 160.410929 
L 360.977405 160.608582 
L 365.898079 160.265797 
L 370.818752 160.048817 
L 375.739426 159.712892 
L 380.660099 160.122469 
L 385.580772 160.339937 
L 390.501446 160.6895 
L 395.422119 160.882165 
L 400.342793 160.066394 
L 405.263466 159.790752 
" style="fill:none;stroke:#9932cc;stroke-linecap:round;stroke-width:1.5;"/>
   </g>
   <g id="line2d_25">
    <path clip-path="url(#p0774e95522)" d="M 272.405284 155.356229 
L 277.325957 155.145233 
L 282.246631 155.71326 
L 287.167304 155.416278 
L 292.087978 156.399444 
L 297.008651 158.33663 
L 301.929324 162.977325 
L 306.849998 165.462629 
L 311.770671 165.044469 
L 316.691345 166.803559 
L 321.612018 165.038783 
L 326.532691 162.489943 
L 331.453365 162.04978 
L 336.374038 162.016383 
L 341.294712 161.523162 
L 346.215385 161.799452 
L 351.136059 161.102196 
L 356.056732 161.580244 
L 360.977405 160.989427 
L 365.898079 160.83424 
L 370.818752 161.108318 
L 375.739426 160.625755 
L 380.660099 161.184117 
L 385.580772 161.302402 
L 390.501446 161.076414 
L 395.422119 162.084156 
L 400.342793 162.558623 
L 405.263466 162.761244 
" style="fill:none;stroke:#3cb371;stroke-linecap:round;stroke-width:1.5;"/>
   </g>
   <g id="line2d_26">
    <path clip-path="url(#p0774e95522)" d="M 272.405284 154.106461 
L 277.325957 154.136303 
L 282.246631 154.465658 
L 287.167304 154.490487 
L 292.087978 155.178354 
L 297.008651 157.542576 
L 301.929324 161.989222 
L 306.849998 163.872551 
L 311.770671 164.066701 
L 316.691345 161.480925 
L 321.612018 158.996327 
L 326.532691 157.676436 
L 331.453365 157.3432 
L 336.374038 157.060831 
L 341.294712 156.717615 
L 346.215385 157.484049 
L 351.136059 156.611498 
L 356.056732 155.98248 
L 360.977405 156.051854 
L 365.898079 156.198158 
L 370.818752 156.547064 
L 375.739426 156.824329 
L 380.660099 156.823092 
L 385.580772 156.973068 
L 390.501446 156.862813 
L 395.422119 157.636007 
L 400.342793 157.698833 
L 405.263466 157.850889 
" style="fill:none;stroke:#cd5c5c;stroke-linecap:round;stroke-width:1.5;"/>
   </g>
   <g id="line2d_27">
    <path clip-path="url(#p0774e95522)" d="M 272.405284 153.786885 
L 277.325957 153.68377 
L 282.246631 153.916849 
L 287.167304 153.865357 
L 292.087978 154.535459 
L 297.008651 156.951855 
L 301.929324 161.132546 
L 306.849998 162.474078 
L 311.770671 163.010977 
L 316.691345 163.60829 
L 321.612018 161.874238 
L 326.532691 160.389292 
L 331.453365 159.673761 
L 336.374038 158.606258 
L 341.294712 160.294956 
L 346.215385 160.061982 
L 351.136059 160.111498 
L 356.056732 160.192858 
L 360.977405 160.493497 
L 365.898079 160.528161 
L 370.818752 160.264372 
L 375.739426 159.904169 
L 380.660099 159.91598 
L 385.580772 160.487212 
L 390.501446 158.866216 
L 395.422119 158.785189 
L 400.342793 159.663861 
L 405.263466 160.025916 
" style="fill:none;stroke:#ffa500;stroke-linecap:round;stroke-width:1.5;"/>
   </g>
   <g id="line2d_28">
    <path clip-path="url(#p0774e95522)" d="M 272.405284 153.23843 
L 277.325957 153.269923 
L 282.246631 153.496432 
L 287.167304 153.399397 
L 292.087978 154.222219 
L 297.008651 155.751697 
L 301.929324 159.406161 
L 306.849998 160.328178 
L 311.770671 160.839173 
L 316.691345 161.733918 
L 321.612018 161.459285 
L 326.532691 159.428127 
L 331.453365 160.06138 
L 336.374038 157.780644 
L 341.294712 157.167333 
L 346.215385 156.923984 
L 351.136059 156.766819 
L 356.056732 156.463181 
L 360.977405 157.851113 
L 365.898079 157.767347 
L 370.818752 157.306537 
L 375.739426 156.667495 
L 380.660099 156.730149 
L 385.580772 157.274554 
L 390.501446 157.650085 
L 395.422119 158.139745 
L 400.342793 157.284452 
L 405.263466 157.36788 
" style="fill:none;stroke:#d3d3d3;stroke-linecap:round;stroke-width:1.5;"/>
   </g>
   <g id="patch_18">
    <path d="M 265.762375 249.319646 
L 265.762375 153.144979 
" style="fill:none;stroke:#262626;stroke-linecap:square;stroke-linejoin:miter;stroke-width:1.25;"/>
   </g>
   <g id="patch_19">
    <path d="M 411.906375 249.319646 
L 411.906375 153.144979 
" style="fill:none;stroke:#262626;stroke-linecap:square;stroke-linejoin:miter;stroke-width:1.25;"/>
   </g>
   <g id="patch_20">
    <path d="M 265.762375 249.319646 
L 411.906375 249.319646 
" style="fill:none;stroke:#262626;stroke-linecap:square;stroke-linejoin:miter;stroke-width:1.25;"/>
   </g>
   <g id="patch_21">
    <path d="M 265.762375 153.144979 
L 411.906375 153.144979 
" style="fill:none;stroke:#262626;stroke-linecap:square;stroke-linejoin:miter;stroke-width:1.25;"/>
   </g>
  </g>
  <g id="axes_5">
   <g id="patch_22">
    <path d="M 48.194375 381.058312 
L 194.338375 381.058312 
L 194.338375 284.883646 
L 48.194375 284.883646 
z
" style="fill:#ffffff;"/>
   </g>
   <g id="matplotlib.axis_9">
    <g id="xtick_4">
     <g id="text_24">
      <!-- 0 -->
      <g style="fill:#262626;" transform="translate(46.767173 398.080766)scale(0.099 -0.099)">
       <use xlink:href="#DejaVuSans-30"/>
      </g>
     </g>
    </g>
    <g id="xtick_5">
     <g id="text_25">
      <!-- 10 -->
      <g style="fill:#262626;" transform="translate(92.82447 398.080766)scale(0.099 -0.099)">
       <use xlink:href="#DejaVuSans-31"/>
       <use x="63.623047" xlink:href="#DejaVuSans-30"/>
      </g>
     </g>
    </g>
    <g id="xtick_6">
     <g id="text_26">
      <!-- 20 -->
      <g style="fill:#262626;" transform="translate(142.031204 398.080766)scale(0.099 -0.099)">
       <use xlink:href="#DejaVuSans-32"/>
       <use x="63.623047" xlink:href="#DejaVuSans-30"/>
      </g>
     </g>
    </g>
    <g id="text_27">
     <!-- Time Step -->
     <defs>
      <path d="M -0.296875 72.90625 
L 61.375 72.90625 
L 61.375 64.59375 
L 35.5 64.59375 
L 35.5 0 
L 25.59375 0 
L 25.59375 64.59375 
L -0.296875 64.59375 
z
" id="DejaVuSans-54"/>
      <path d="M 52 44.1875 
Q 55.375 50.25 60.0625 53.125 
Q 64.75 56 71.09375 56 
Q 79.640625 56 84.28125 50.015625 
Q 88.921875 44.046875 88.921875 33.015625 
L 88.921875 0 
L 79.890625 0 
L 79.890625 32.71875 
Q 79.890625 40.578125 77.09375 44.375 
Q 74.3125 48.1875 68.609375 48.1875 
Q 61.625 48.1875 57.5625 43.546875 
Q 53.515625 38.921875 53.515625 30.90625 
L 53.515625 0 
L 44.484375 0 
L 44.484375 32.71875 
Q 44.484375 40.625 41.703125 44.40625 
Q 38.921875 48.1875 33.109375 48.1875 
Q 26.21875 48.1875 22.15625 43.53125 
Q 18.109375 38.875 18.109375 30.90625 
L 18.109375 0 
L 9.078125 0 
L 9.078125 54.6875 
L 18.109375 54.6875 
L 18.109375 46.1875 
Q 21.1875 51.21875 25.484375 53.609375 
Q 29.78125 56 35.6875 56 
Q 41.65625 56 45.828125 52.96875 
Q 50 49.953125 52 44.1875 
z
" id="DejaVuSans-6d"/>
      <path d="M 18.109375 8.203125 
L 18.109375 -20.796875 
L 9.078125 -20.796875 
L 9.078125 54.6875 
L 18.109375 54.6875 
L 18.109375 46.390625 
Q 20.953125 51.265625 25.265625 53.625 
Q 29.59375 56 35.59375 56 
Q 45.5625 56 51.78125 48.09375 
Q 58.015625 40.1875 58.015625 27.296875 
Q 58.015625 14.40625 51.78125 6.484375 
Q 45.5625 -1.421875 35.59375 -1.421875 
Q 29.59375 -1.421875 25.265625 0.953125 
Q 20.953125 3.328125 18.109375 8.203125 
z
M 48.6875 27.296875 
Q 48.6875 37.203125 44.609375 42.84375 
Q 40.53125 48.484375 33.40625 48.484375 
Q 26.265625 48.484375 22.1875 42.84375 
Q 18.109375 37.203125 18.109375 27.296875 
Q 18.109375 17.390625 22.1875 11.75 
Q 26.265625 6.109375 33.40625 6.109375 
Q 40.53125 6.109375 44.609375 11.75 
Q 48.6875 17.390625 48.6875 27.296875 
z
" id="DejaVuSans-70"/>
     </defs>
     <g style="fill:#262626;" transform="translate(93.875719 412.345969)scale(0.108 -0.108)">
      <use xlink:href="#DejaVuSans-54"/>
      <use x="61.037109" xlink:href="#DejaVuSans-69"/>
      <use x="88.820312" xlink:href="#DejaVuSans-6d"/>
      <use x="186.232422" xlink:href="#DejaVuSans-65"/>
      <use x="247.755859" xlink:href="#DejaVuSans-20"/>
      <use x="279.542969" xlink:href="#DejaVuSans-53"/>
      <use x="343.019531" xlink:href="#DejaVuSans-74"/>
      <use x="382.228516" xlink:href="#DejaVuSans-65"/>
      <use x="443.751953" xlink:href="#DejaVuSans-70"/>
     </g>
    </g>
   </g>
   <g id="matplotlib.axis_10">
    <g id="ytick_17">
     <g id="text_28">
      <!-- 0 -->
      <g style="fill:#262626;" transform="translate(32.3955 380.467548)scale(0.099 -0.099)">
       <use xlink:href="#DejaVuSans-30"/>
      </g>
     </g>
    </g>
    <g id="ytick_18">
     <g id="text_29">
      <!-- 5000 -->
      <g style="fill:#262626;" transform="translate(13.498875 341.7141)scale(0.099 -0.099)">
       <use xlink:href="#DejaVuSans-35"/>
       <use x="63.623047" xlink:href="#DejaVuSans-30"/>
       <use x="127.246094" xlink:href="#DejaVuSans-30"/>
       <use x="190.869141" xlink:href="#DejaVuSans-30"/>
      </g>
     </g>
    </g>
    <g id="ytick_19">
     <g id="text_30">
      <!-- 10000 -->
      <g style="fill:#262626;" transform="translate(7.2 302.960652)scale(0.099 -0.099)">
       <use xlink:href="#DejaVuSans-31"/>
       <use x="63.623047" xlink:href="#DejaVuSans-30"/>
       <use x="127.246094" xlink:href="#DejaVuSans-30"/>
       <use x="190.869141" xlink:href="#DejaVuSans-30"/>
       <use x="254.492188" xlink:href="#DejaVuSans-30"/>
      </g>
     </g>
    </g>
   </g>
   <g id="line2d_29">
    <path clip-path="url(#p94c04d5353)" d="M 54.837284 376.113347 
L 59.757957 376.130047 
L 64.678631 376.021393 
L 69.599304 376.104094 
L 74.519978 376.082563 
L 79.440651 375.880909 
L 84.361324 375.943216 
L 89.281998 375.521796 
L 94.202671 375.058864 
L 99.123345 374.875402 
L 104.044018 375.422626 
L 108.964691 375.640601 
L 113.885365 375.419571 
L 118.806038 375.293937 
L 123.726712 375.342755 
L 128.647385 375.634832 
L 133.568059 375.809026 
L 138.488732 376.043658 
L 143.409405 376.092196 
L 148.330079 375.936288 
L 153.250752 375.981823 
L 158.171426 375.473989 
L 163.092099 374.129269 
L 168.012772 372.095332 
L 172.933446 366.253123 
L 177.854119 351.600659 
L 182.774793 316.332315 
L 187.695466 289.255222 
" style="fill:none;stroke:#00008b;stroke-linecap:round;stroke-width:1.5;"/>
   </g>
   <g id="line2d_30">
    <path clip-path="url(#p94c04d5353)" d="M 54.837284 376.139764 
L 59.757957 376.318904 
L 64.678631 376.580381 
L 69.599304 376.204586 
L 74.519978 376.305493 
L 79.440651 376.552827 
L 84.361324 376.396281 
L 89.281998 376.522642 
L 94.202671 376.538717 
L 99.123345 376.30138 
L 104.044018 376.194885 
L 108.964691 376.163565 
L 113.885365 376.10643 
L 118.806038 376.125353 
L 123.726712 376.182376 
L 128.647385 376.239749 
L 133.568059 376.261741 
L 138.488732 376.164461 
L 143.409405 376.241116 
L 148.330079 376.006141 
L 153.250752 375.974599 
L 158.171426 375.404125 
L 163.092099 374.342246 
L 168.012772 372.426263 
L 172.933446 369.976071 
L 177.854119 362.038538 
L 182.774793 351.255829 
L 187.695466 346.524386 
" style="fill:none;stroke:#1e90ff;stroke-linecap:round;stroke-width:1.5;"/>
   </g>
   <g id="line2d_31">
    <path clip-path="url(#p94c04d5353)" d="M 54.837284 376.529667 
L 59.757957 376.323886 
L 64.678631 376.353491 
L 69.599304 376.482527 
L 74.519978 376.312956 
L 79.440651 376.33381 
L 84.361324 376.313869 
L 89.281998 376.398713 
L 94.202671 376.442724 
L 99.123345 376.479347 
L 104.044018 376.414296 
L 108.964691 376.443524 
L 113.885365 376.314147 
L 118.806038 376.216599 
L 123.726712 376.315331 
L 128.647385 376.375428 
L 133.568059 376.273751 
L 138.488732 376.384314 
L 143.409405 376.304984 
L 148.330079 376.368642 
L 153.250752 376.057823 
L 158.171426 375.635579 
L 163.092099 374.859592 
L 168.012772 373.924133 
L 172.933446 372.234292 
L 177.854119 370.252551 
L 182.774793 368.308187 
L 187.695466 367.477402 
" style="fill:none;stroke:#9932cc;stroke-linecap:round;stroke-width:1.5;"/>
   </g>
   <g id="line2d_32">
    <path clip-path="url(#p94c04d5353)" d="M 54.837284 376.56472 
L 59.757957 376.458252 
L 64.678631 376.481533 
L 69.599304 376.510321 
L 74.519978 376.675299 
L 79.440651 376.562988 
L 84.361324 376.486233 
L 89.281998 376.420557 
L 94.202671 376.645026 
L 99.123345 376.583237 
L 104.044018 376.503991 
L 108.964691 376.444438 
L 113.885365 376.428166 
L 118.806038 376.318612 
L 123.726712 376.359386 
L 128.647385 376.398138 
L 133.568059 376.463852 
L 138.488732 376.533994 
L 143.409405 376.456771 
L 148.330079 376.383365 
L 153.250752 376.253182 
L 158.171426 375.856331 
L 163.092099 375.366532 
L 168.012772 374.863417 
L 172.933446 374.187299 
L 177.854119 373.337532 
L 182.774793 372.582687 
L 187.695466 372.239869 
" style="fill:none;stroke:#3cb371;stroke-linecap:round;stroke-width:1.5;"/>
   </g>
   <g id="line2d_33">
    <path clip-path="url(#p94c04d5353)" d="M 54.837284 376.581968 
L 59.757957 376.59988 
L 64.678631 376.463781 
L 69.599304 376.467496 
L 74.519978 376.406347 
L 79.440651 376.56052 
L 84.361324 376.496771 
L 89.281998 376.544884 
L 94.202671 376.573613 
L 99.123345 376.611202 
L 104.044018 376.619086 
L 108.964691 376.583227 
L 113.885365 376.43403 
L 118.806038 376.473942 
L 123.726712 376.461261 
L 128.647385 376.498837 
L 133.568059 376.501616 
L 138.488732 376.543398 
L 143.409405 376.534642 
L 148.330079 376.412129 
L 153.250752 376.278274 
L 158.171426 376.406404 
L 163.092099 376.150357 
L 168.012772 375.815382 
L 172.933446 375.202817 
L 177.854119 374.734962 
L 182.774793 374.451191 
L 187.695466 374.358765 
" style="fill:none;stroke:#cd5c5c;stroke-linecap:round;stroke-width:1.5;"/>
   </g>
   <g id="line2d_34">
    <path clip-path="url(#p94c04d5353)" d="M 54.837284 376.651496 
L 59.757957 376.601146 
L 64.678631 376.624221 
L 69.599304 376.527188 
L 74.519978 376.541062 
L 79.440651 376.507842 
L 84.361324 376.623865 
L 89.281998 376.565102 
L 94.202671 376.574484 
L 99.123345 376.669961 
L 104.044018 376.595219 
L 108.964691 376.646708 
L 113.885365 376.549389 
L 118.806038 376.604653 
L 123.726712 376.599521 
L 128.647385 376.632412 
L 133.568059 376.618443 
L 138.488732 376.613774 
L 143.409405 376.5882 
L 148.330079 376.546607 
L 153.250752 376.456594 
L 158.171426 376.35722 
L 163.092099 376.36414 
L 168.012772 376.315746 
L 172.933446 376.200508 
L 177.854119 375.768223 
L 182.774793 375.65804 
L 187.695466 375.558353 
" style="fill:none;stroke:#ffa500;stroke-linecap:round;stroke-width:1.5;"/>
   </g>
   <g id="line2d_35">
    <path clip-path="url(#p94c04d5353)" d="M 54.837284 376.669429 
L 59.757957 376.613199 
L 64.678631 376.681642 
L 69.599304 376.617773 
L 74.519978 376.643098 
L 79.440651 376.656434 
L 84.361324 376.612209 
L 89.281998 376.640703 
L 94.202671 376.64917 
L 99.123345 376.686115 
L 104.044018 376.674345 
L 108.964691 376.671242 
L 113.885365 376.686737 
L 118.806038 376.665986 
L 123.726712 376.679269 
L 128.647385 376.661775 
L 133.568059 376.677815 
L 138.488732 376.669483 
L 143.409405 376.667369 
L 148.330079 376.684794 
L 153.250752 376.672668 
L 158.171426 376.646274 
L 163.092099 376.601868 
L 168.012772 376.515016 
L 172.933446 376.440216 
L 177.854119 376.424504 
L 182.774793 376.409538 
L 187.695466 376.411066 
" style="fill:none;stroke:#d3d3d3;stroke-linecap:round;stroke-width:1.5;"/>
   </g>
   <g id="patch_23">
    <path d="M 48.194375 381.058312 
L 48.194375 284.883646 
" style="fill:none;stroke:#262626;stroke-linecap:square;stroke-linejoin:miter;stroke-width:1.25;"/>
   </g>
   <g id="patch_24">
    <path d="M 194.338375 381.058312 
L 194.338375 284.883646 
" style="fill:none;stroke:#262626;stroke-linecap:square;stroke-linejoin:miter;stroke-width:1.25;"/>
   </g>
   <g id="patch_25">
    <path d="M 48.194375 381.058312 
L 194.338375 381.058312 
" style="fill:none;stroke:#262626;stroke-linecap:square;stroke-linejoin:miter;stroke-width:1.25;"/>
   </g>
   <g id="patch_26">
    <path d="M 48.194375 284.883646 
L 194.338375 284.883646 
" style="fill:none;stroke:#262626;stroke-linecap:square;stroke-linejoin:miter;stroke-width:1.25;"/>
   </g>
  </g>
  <g id="axes_6">
   <g id="patch_27">
    <path d="M 265.762375 381.058312 
L 411.906375 381.058312 
L 411.906375 284.883646 
L 265.762375 284.883646 
z
" style="fill:#ffffff;"/>
   </g>
   <g id="matplotlib.axis_11">
    <g id="xtick_7">
     <g id="text_31">
      <!-- 0 -->
      <g style="fill:#262626;" transform="translate(264.335173 398.080766)scale(0.099 -0.099)">
       <use xlink:href="#DejaVuSans-30"/>
      </g>
     </g>
    </g>
    <g id="xtick_8">
     <g id="text_32">
      <!-- 10 -->
      <g style="fill:#262626;" transform="translate(310.39247 398.080766)scale(0.099 -0.099)">
       <use xlink:href="#DejaVuSans-31"/>
       <use x="63.623047" xlink:href="#DejaVuSans-30"/>
      </g>
     </g>
    </g>
    <g id="xtick_9">
     <g id="text_33">
      <!-- 20 -->
      <g style="fill:#262626;" transform="translate(359.599204 398.080766)scale(0.099 -0.099)">
       <use xlink:href="#DejaVuSans-32"/>
       <use x="63.623047" xlink:href="#DejaVuSans-30"/>
      </g>
     </g>
    </g>
    <g id="text_34">
     <!-- Time Step -->
     <g style="fill:#262626;" transform="translate(311.443719 412.345969)scale(0.108 -0.108)">
      <use xlink:href="#DejaVuSans-54"/>
      <use x="61.037109" xlink:href="#DejaVuSans-69"/>
      <use x="88.820312" xlink:href="#DejaVuSans-6d"/>
      <use x="186.232422" xlink:href="#DejaVuSans-65"/>
      <use x="247.755859" xlink:href="#DejaVuSans-20"/>
      <use x="279.542969" xlink:href="#DejaVuSans-53"/>
      <use x="343.019531" xlink:href="#DejaVuSans-74"/>
      <use x="382.228516" xlink:href="#DejaVuSans-65"/>
      <use x="443.751953" xlink:href="#DejaVuSans-70"/>
     </g>
    </g>
   </g>
   <g id="matplotlib.axis_12">
    <g id="ytick_20">
     <g id="text_35">
      <!-- 0 -->
      <g style="fill:#262626;" transform="translate(249.9635 380.703828)scale(0.099 -0.099)">
       <use xlink:href="#DejaVuSans-30"/>
      </g>
     </g>
    </g>
    <g id="ytick_21">
     <g id="text_36">
      <!-- 5000 -->
      <g style="fill:#262626;" transform="translate(231.066875 345.584415)scale(0.099 -0.099)">
       <use xlink:href="#DejaVuSans-35"/>
       <use x="63.623047" xlink:href="#DejaVuSans-30"/>
       <use x="127.246094" xlink:href="#DejaVuSans-30"/>
       <use x="190.869141" xlink:href="#DejaVuSans-30"/>
      </g>
     </g>
    </g>
    <g id="ytick_22">
     <g id="text_37">
      <!-- 10000 -->
      <g style="fill:#262626;" transform="translate(224.768 310.465002)scale(0.099 -0.099)">
       <use xlink:href="#DejaVuSans-31"/>
       <use x="63.623047" xlink:href="#DejaVuSans-30"/>
       <use x="127.246094" xlink:href="#DejaVuSans-30"/>
       <use x="190.869141" xlink:href="#DejaVuSans-30"/>
       <use x="254.492188" xlink:href="#DejaVuSans-30"/>
      </g>
     </g>
    </g>
    <g id="text_38">
     <!-- ESS -->
     <g style="fill:#262626;" transform="translate(218.521938 343.239417)rotate(-90)scale(0.108 -0.108)">
      <use xlink:href="#DejaVuSans-45"/>
      <use x="63.183594" xlink:href="#DejaVuSans-53"/>
      <use x="126.660156" xlink:href="#DejaVuSans-53"/>
     </g>
    </g>
   </g>
   <g id="line2d_36">
    <path clip-path="url(#p5af22dbe73)" d="M 272.405284 291.648961 
L 277.325957 289.563555 
L 282.246631 290.454447 
L 287.167304 296.204776 
L 292.087978 296.835171 
L 297.008651 295.277229 
L 301.929324 294.444129 
L 306.849998 290.93739 
L 311.770671 289.255222 
L 316.691345 293.692583 
L 321.612018 297.354782 
L 326.532691 300.357929 
L 331.453365 301.828173 
L 336.374038 301.964937 
L 341.294712 300.192343 
L 346.215385 298.47805 
L 351.136059 297.165711 
L 356.056732 294.509503 
L 360.977405 293.030788 
L 365.898079 293.477335 
L 370.818752 292.499205 
L 375.739426 291.932996 
L 380.660099 293.882497 
L 385.580772 293.438158 
L 390.501446 294.463611 
L 395.422119 296.493082 
L 400.342793 296.848149 
L 405.263466 296.657392 
" style="fill:none;stroke:#00008b;stroke-linecap:round;stroke-width:1.5;"/>
   </g>
   <g id="line2d_37">
    <path clip-path="url(#p5af22dbe73)" d="M 272.405284 345.992564 
L 277.325957 346.072808 
L 282.246631 345.990821 
L 287.167304 346.768106 
L 292.087978 346.955322 
L 297.008651 347.803196 
L 301.929324 348.29296 
L 306.849998 349.398554 
L 311.770671 349.560878 
L 316.691345 349.270982 
L 321.612018 348.968738 
L 326.532691 348.924154 
L 331.453365 349.305964 
L 336.374038 349.426898 
L 341.294712 349.438891 
L 346.215385 349.43253 
L 351.136059 349.598803 
L 356.056732 350.139373 
L 360.977405 350.150543 
L 365.898079 350.242418 
L 370.818752 350.028474 
L 375.739426 350.180517 
L 380.660099 349.660913 
L 385.580772 350.125947 
L 390.501446 350.081816 
L 395.422119 349.973407 
L 400.342793 349.43569 
L 405.263466 349.476357 
" style="fill:none;stroke:#1e90ff;stroke-linecap:round;stroke-width:1.5;"/>
   </g>
   <g id="line2d_38">
    <path clip-path="url(#p5af22dbe73)" d="M 272.405284 368.295089 
L 277.325957 368.299403 
L 282.246631 368.337273 
L 287.167304 368.376446 
L 292.087978 368.472771 
L 297.008651 368.76198 
L 301.929324 369.114058 
L 306.849998 369.24175 
L 311.770671 369.481608 
L 316.691345 369.555648 
L 321.612018 369.238908 
L 326.532691 368.996632 
L 331.453365 368.679277 
L 336.374038 368.6793 
L 341.294712 368.659784 
L 346.215385 368.684446 
L 351.136059 368.636803 
L 356.056732 368.631265 
L 360.977405 368.649742 
L 365.898079 368.617697 
L 370.818752 368.597414 
L 375.739426 368.566011 
L 380.660099 368.604299 
L 385.580772 368.624628 
L 390.501446 368.657306 
L 395.422119 368.675317 
L 400.342793 368.599057 
L 405.263466 368.573289 
" style="fill:none;stroke:#9932cc;stroke-linecap:round;stroke-width:1.5;"/>
   </g>
   <g id="line2d_39">
    <path clip-path="url(#p5af22dbe73)" d="M 272.405284 372.550672 
L 277.325957 372.54081 
L 282.246631 372.56736 
L 287.167304 372.553479 
L 292.087978 372.599433 
L 297.008651 372.689978 
L 301.929324 372.906888 
L 306.849998 373.023054 
L 311.770671 373.003508 
L 316.691345 373.08573 
L 321.612018 373.003243 
L 326.532691 372.884108 
L 331.453365 372.863534 
L 336.374038 372.861973 
L 341.294712 372.83892 
L 346.215385 372.851834 
L 351.136059 372.819243 
L 356.056732 372.841588 
L 360.977405 372.813972 
L 365.898079 372.806719 
L 370.818752 372.819529 
L 375.739426 372.796974 
L 380.660099 372.823072 
L 385.580772 372.828601 
L 390.501446 372.818038 
L 395.422119 372.865141 
L 400.342793 372.887318 
L 405.263466 372.896789 
" style="fill:none;stroke:#3cb371;stroke-linecap:round;stroke-width:1.5;"/>
   </g>
   <g id="line2d_40">
    <path clip-path="url(#p5af22dbe73)" d="M 272.405284 374.717429 
L 277.325957 374.718126 
L 282.246631 374.725824 
L 287.167304 374.726404 
L 292.087978 374.74248 
L 297.008651 374.797732 
L 301.929324 374.901652 
L 306.849998 374.945667 
L 311.770671 374.950204 
L 316.691345 374.889773 
L 321.612018 374.831707 
L 326.532691 374.800861 
L 331.453365 374.793073 
L 336.374038 374.786474 
L 341.294712 374.778453 
L 346.215385 374.796365 
L 351.136059 374.775973 
L 356.056732 374.761272 
L 360.977405 374.762894 
L 365.898079 374.766313 
L 370.818752 374.774467 
L 375.739426 374.780947 
L 380.660099 374.780918 
L 385.580772 374.784423 
L 390.501446 374.781846 
L 395.422119 374.799916 
L 400.342793 374.801384 
L 405.263466 374.804938 
" style="fill:none;stroke:#cd5c5c;stroke-linecap:round;stroke-width:1.5;"/>
   </g>
   <g id="line2d_41">
    <path clip-path="url(#p5af22dbe73)" d="M 272.405284 375.826281 
L 277.325957 375.825076 
L 282.246631 375.827799 
L 287.167304 375.827198 
L 292.087978 375.835028 
L 297.008651 375.863264 
L 301.929324 375.912116 
L 306.849998 375.927792 
L 311.770671 375.934066 
L 316.691345 375.941046 
L 321.612018 375.920783 
L 326.532691 375.903431 
L 331.453365 375.89507 
L 336.374038 375.882596 
L 341.294712 375.902329 
L 346.215385 375.899607 
L 351.136059 375.900185 
L 356.056732 375.901136 
L 360.977405 375.904649 
L 365.898079 375.905054 
L 370.818752 375.901972 
L 375.739426 375.897762 
L 380.660099 375.897901 
L 385.580772 375.904575 
L 390.501446 375.885634 
L 395.422119 375.884687 
L 400.342793 375.894954 
L 405.263466 375.899185 
" style="fill:none;stroke:#ffa500;stroke-linecap:round;stroke-width:1.5;"/>
   </g>
   <g id="line2d_42">
    <path clip-path="url(#p5af22dbe73)" d="M 272.405284 376.661919 
L 277.325957 376.662011 
L 282.246631 376.662673 
L 287.167304 376.662389 
L 292.087978 376.664793 
L 297.008651 376.669261 
L 301.929324 376.679937 
L 306.849998 376.68263 
L 311.770671 376.684123 
L 316.691345 376.686737 
L 321.612018 376.685934 
L 326.532691 376.680001 
L 331.453365 376.681851 
L 336.374038 376.675188 
L 341.294712 376.673396 
L 346.215385 376.672685 
L 351.136059 376.672226 
L 356.056732 376.671339 
L 360.977405 376.675394 
L 365.898079 376.675149 
L 370.818752 376.673803 
L 375.739426 376.671936 
L 380.660099 376.672119 
L 385.580772 376.67371 
L 390.501446 376.674807 
L 395.422119 376.676237 
L 400.342793 376.673739 
L 405.263466 376.673982 
" style="fill:none;stroke:#d3d3d3;stroke-linecap:round;stroke-width:1.5;"/>
   </g>
   <g id="patch_28">
    <path d="M 265.762375 381.058312 
L 265.762375 284.883646 
" style="fill:none;stroke:#262626;stroke-linecap:square;stroke-linejoin:miter;stroke-width:1.25;"/>
   </g>
   <g id="patch_29">
    <path d="M 411.906375 381.058312 
L 411.906375 284.883646 
" style="fill:none;stroke:#262626;stroke-linecap:square;stroke-linejoin:miter;stroke-width:1.25;"/>
   </g>
   <g id="patch_30">
    <path d="M 265.762375 381.058312 
L 411.906375 381.058312 
" style="fill:none;stroke:#262626;stroke-linecap:square;stroke-linejoin:miter;stroke-width:1.25;"/>
   </g>
   <g id="patch_31">
    <path d="M 265.762375 284.883646 
L 411.906375 284.883646 
" style="fill:none;stroke:#262626;stroke-linecap:square;stroke-linejoin:miter;stroke-width:1.25;"/>
   </g>
  </g>
 </g>
 <defs>
  <clipPath id="p0f19d66c4c">
   <rect height="96.174667" width="146.144" x="48.194375" y="21.406313"/>
  </clipPath>
  <clipPath id="pb76d0246d8">
   <rect height="96.174667" width="146.144" x="265.762375" y="21.406313"/>
  </clipPath>
  <clipPath id="p65ab5f4060">
   <rect height="96.174667" width="146.144" x="48.194375" y="153.144979"/>
  </clipPath>
  <clipPath id="p0774e95522">
   <rect height="96.174667" width="146.144" x="265.762375" y="153.144979"/>
  </clipPath>
  <clipPath id="p94c04d5353">
   <rect height="96.174667" width="146.144" x="48.194375" y="284.883646"/>
  </clipPath>
  <clipPath id="p5af22dbe73">
   <rect height="96.174667" width="146.144" x="265.762375" y="284.883646"/>
  </clipPath>
 </defs>
</svg>
